<?xml version="1.0" encoding="utf-8"?>
<!-- Generator: Adobe Illustrator 16.0.0, SVG Export Plug-In . SVG Version: 6.00 Build 0)  -->
<!DOCTYPE svg PUBLIC "-//W3C//DTD SVG 1.1//EN" "http://www.w3.org/Graphics/SVG/1.1/DTD/svg11.dtd">
<svg version="1.1" id="Layer_1" xmlns="http://www.w3.org/2000/svg" xmlns:xlink="http://www.w3.org/1999/xlink" x="0px" y="0px"
	 width="160px" height="160px" viewBox="-60 -60 160 160" enable-background="new -60 -60 160 160" xml:space="preserve">
<circle fill="#B0BEC5" cx="-40" cy="-40" r="20"/>
<g enable-background="new    ">
	<path fill="#FFFFFF" d="M-45.004-46.961c1.056-0.192,2.521-0.337,4.512-0.337c2.161,0,3.745,0.456,4.777,1.32
		c0.96,0.792,1.584,2.064,1.584,3.576c0,1.536-0.48,2.809-1.392,3.673c-1.176,1.176-3.024,1.728-5.112,1.728
		c-0.552,0-1.056-0.023-1.44-0.096V-31h-2.928V-46.961z M-42.076-39.425c0.36,0.096,0.84,0.12,1.44,0.12
		c2.208,0,3.552-1.08,3.552-2.977c0-1.8-1.248-2.76-3.289-2.76c-0.816,0-1.392,0.072-1.704,0.144V-39.425z"/>
</g>
<circle fill="#FFCA28" cx="-40" cy="0" r="20"/>
<g enable-background="new    ">
	<path fill="#FFFFFF" d="M-51.64-6.961c0.936-0.192,2.64-0.337,4.296-0.337c2.184,0,3.528,0.265,4.632,1.032
		c1.008,0.601,1.68,1.656,1.68,3.024c0,1.488-0.936,2.856-2.688,3.505v0.048c1.704,0.432,3.264,1.776,3.264,4.008
		c0,1.44-0.624,2.568-1.56,3.337c-1.152,1.008-3.048,1.512-6,1.512c-1.632,0-2.88-0.12-3.625-0.216V-6.961z M-48.711-0.577h1.512
		c2.04,0,3.192-0.96,3.192-2.328c0-1.512-1.152-2.208-3.024-2.208c-0.864,0-1.368,0.048-1.68,0.12V-0.577z M-48.711,6.864
		c0.384,0.048,0.888,0.071,1.56,0.071c1.896,0,3.577-0.72,3.577-2.712c0-1.872-1.632-2.641-3.672-2.641h-1.464V6.864z"/>
	<path fill="#FFFFFF" d="M-33.855-3.938h-0.048l-2.856,1.44l-0.504-2.232l3.792-1.872H-31V9h-2.856V-3.938z"/>
</g>
<circle fill="#FFA000" cx="0" cy="0" r="20"/>
<g enable-background="new    ">
	<path fill="#FFFFFF" d="M-11.64-6.961C-10.704-7.153-9-7.298-7.343-7.298c2.184,0,3.528,0.265,4.632,1.032
		c1.008,0.601,1.68,1.656,1.68,3.024c0,1.488-0.936,2.856-2.688,3.505v0.048c1.704,0.432,3.264,1.776,3.264,4.008
		c0,1.44-0.624,2.568-1.56,3.337c-1.152,1.008-3.048,1.512-6,1.512c-1.632,0-2.88-0.12-3.625-0.216V-6.961z M-8.711-0.577h1.512
		c2.04,0,3.192-0.96,3.192-2.328c0-1.512-1.152-2.208-3.024-2.208c-0.864,0-1.368,0.048-1.68,0.12V-0.577z M-8.711,6.864
		c0.384,0.048,0.888,0.071,1.56,0.071c1.896,0,3.577-0.72,3.577-2.712c0-1.872-1.632-2.641-3.672-2.641h-1.464V6.864z"/>
	<path fill="#FFFFFF" d="M1.512,9V7.2L3.36,5.496c3.672-3.408,5.4-5.281,5.424-7.345c0-1.393-0.744-2.616-2.784-2.616
		c-1.368,0-2.544,0.695-3.336,1.296L1.8-5.257c1.128-0.912,2.832-1.608,4.8-1.608c3.456,0,5.136,2.184,5.136,4.729
		c0,2.736-1.968,4.944-4.68,7.465L5.688,6.504v0.048h6.409V9H1.512z"/>
</g>
<circle fill="#4FC3F7" cx="-40" cy="40" r="20"/>
<g enable-background="new    ">
	<path fill="#FFFFFF" d="M-40.19,48.52c-0.696,0.36-2.232,0.721-4.177,0.721c-5.136,0-8.256-3.217-8.256-8.137
		c0-5.329,3.696-8.545,8.641-8.545c1.944,0,3.336,0.408,3.936,0.72l-0.648,2.353c-0.768-0.336-1.824-0.624-3.168-0.624
		c-3.289,0-5.665,2.064-5.665,5.952c0,3.553,2.088,5.833,5.641,5.833c1.2,0,2.448-0.24,3.216-0.601L-40.19,48.52z"/>
	<path fill="#FFFFFF" d="M-33.711,36.063h-0.048l-2.856,1.44l-0.504-2.232l3.792-1.872h2.472V49h-2.856V36.063z"/>
</g>
<circle fill="#039BE5" cx="0" cy="40" r="20"/>
<g enable-background="new    ">
	<path fill="#FFFFFF" d="M-0.19,48.52c-0.696,0.36-2.232,0.721-4.177,0.721c-5.136,0-8.256-3.217-8.256-8.137
		c0-5.329,3.696-8.545,8.641-8.545c1.944,0,3.336,0.408,3.936,0.72l-0.648,2.353c-0.768-0.336-1.824-0.624-3.168-0.624
		c-3.289,0-5.665,2.064-5.665,5.952c0,3.553,2.088,5.833,5.641,5.833c1.2,0,2.448-0.24,3.216-0.601L-0.19,48.52z"/>
	<path fill="#FFFFFF" d="M1.656,49v-1.8l1.848-1.704c3.672-3.408,5.4-5.281,5.424-7.345c0-1.393-0.744-2.616-2.784-2.616
		c-1.368,0-2.544,0.695-3.336,1.296l-0.864-2.088c1.128-0.912,2.832-1.608,4.8-1.608c3.456,0,5.136,2.184,5.136,4.729
		c0,2.736-1.968,4.944-4.68,7.465l-1.368,1.176v0.048h6.409V49H1.656z"/>
</g>
<circle fill="#0277BD" cx="40" cy="40" r="20"/>
<g enable-background="new    ">
	<path fill="#FFFFFF" d="M39.81,48.52c-0.696,0.36-2.232,0.721-4.177,0.721c-5.137,0-8.256-3.217-8.256-8.137
		c0-5.329,3.695-8.545,8.641-8.545c1.943,0,3.336,0.408,3.936,0.72l-0.648,2.353c-0.768-0.336-1.824-0.624-3.168-0.624
		c-3.288,0-5.664,2.064-5.664,5.952c0,3.553,2.088,5.833,5.641,5.833c1.199,0,2.447-0.24,3.216-0.601L39.81,48.52z"/>
	<path fill="#FFFFFF" d="M42.256,45.952c0.601,0.359,2.064,0.96,3.553,0.96c2.256,0,3.168-1.272,3.145-2.496
		c0-1.849-1.729-2.641-3.529-2.641h-1.367v-2.16h1.32c1.367,0,3.096-0.624,3.096-2.185c0-1.056-0.792-1.943-2.496-1.943
		c-1.271,0-2.545,0.552-3.192,0.983l-0.672-2.136c0.888-0.624,2.616-1.2,4.488-1.2c3.216,0,4.872,1.776,4.872,3.816
		c0,1.632-0.96,2.976-2.88,3.648v0.048c1.896,0.336,3.433,1.776,3.433,3.888c0,2.641-2.209,4.729-6.072,4.729
		c-1.896,0-3.529-0.527-4.369-1.08L42.256,45.952z"/>
</g>
<circle fill="#EF9A9A" cx="-40" cy="80" r="20"/>
<g enable-background="new    ">
	<path fill="#FFFFFF" d="M-50.836,72.822h9.337v2.425h-6.385v4.464h5.953v2.425h-5.953V89h-2.952V72.822z"/>
	<path fill="#FFFFFF" d="M-34.66,76.063h-0.048l-2.856,1.44l-0.504-2.232l3.792-1.872h2.472V89h-2.856V76.063z"/>
</g>
<circle fill="#E57373" cx="0" cy="80" r="20"/>
<g enable-background="new    ">
	<path fill="#FFFFFF" d="M-10.836,72.822h9.337v2.425h-6.385v4.464h5.953v2.425h-5.953V89h-2.952V72.822z"/>
	<path fill="#FFFFFF" d="M0.708,89v-1.8l1.848-1.704c3.672-3.408,5.4-5.281,5.424-7.345c0-1.393-0.744-2.616-2.784-2.616
		c-1.368,0-2.544,0.695-3.336,1.296l-0.864-2.088c1.128-0.912,2.832-1.608,4.8-1.608c3.456,0,5.136,2.184,5.136,4.729
		c0,2.736-1.968,4.944-4.68,7.465l-1.368,1.176v0.048h6.409V89H0.708z"/>
</g>
<circle fill="#EF5350" cx="40" cy="80" r="20"/>
<g enable-background="new    ">
	<path fill="#FFFFFF" d="M29.164,72.822h9.337v2.425h-6.385v4.464h5.952v2.425h-5.952V89h-2.952V72.822z"/>
	<path fill="#FFFFFF" d="M41.309,85.952c0.6,0.359,2.063,0.96,3.552,0.96c2.256,0,3.168-1.272,3.144-2.496
		c0-1.849-1.728-2.641-3.527-2.641h-1.369v-2.16h1.32c1.369,0,3.097-0.624,3.097-2.185c0-1.056-0.792-1.943-2.496-1.943
		c-1.272,0-2.544,0.552-3.192,0.983l-0.672-2.136c0.888-0.624,2.616-1.2,4.488-1.2c3.217,0,4.873,1.776,4.873,3.816
		c0,1.632-0.961,2.976-2.881,3.648v0.048c1.896,0.336,3.432,1.776,3.432,3.888c0,2.641-2.207,4.729-6.072,4.729
		c-1.896,0-3.527-0.527-4.368-1.08L41.309,85.952z"/>
</g>
<circle fill="#E53935" cx="80" cy="80" r="20"/>
<g enable-background="new    ">
	<path fill="#FFFFFF" d="M69.164,72.822h9.337v2.425h-6.385v4.464h5.952v2.425h-5.952V89h-2.952V72.822z"/>
	<path fill="#FFFFFF" d="M87.213,89v-3.96h-7.057v-1.921l6.36-9.721h3.479v9.409h2.017v2.232h-2.017V89H87.213z M87.213,82.808
		V78.56c0-0.889,0.023-1.801,0.096-2.713h-0.096c-0.48,0.984-0.889,1.776-1.369,2.641l-2.855,4.272l-0.024,0.048H87.213z"/>
</g>
</svg>
